<svg width="26" height="26" viewBox="0 0 26 26" fill="none" xmlns="http://www.w3.org/2000/svg">
<path d="M13.0971 0.552979C6.25258 0.552979 0.684082 6.12148 0.684082 12.966C0.684082 19.811 6.25258 25.38 13.0971 25.38C19.9416 25.38 25.5101 19.811 25.5101 12.966C25.5106 6.12148 19.9421 0.552979 13.0971 0.552979ZM19.9556 12.0585V12.059L16.3621 14.659L17.7461 18.889C17.7681 18.955 17.7796 19.0255 17.7796 19.0975C17.7796 19.467 17.4806 19.767 17.1111 19.767C16.9641 19.767 16.8291 19.72 16.7191 19.6405L13.0976 17.021L9.47608 19.6405C9.36608 19.72 9.23108 19.767 9.08458 19.767C8.71458 19.767 8.41508 19.4675 8.41508 19.0975C8.41508 19.025 8.42708 18.955 8.44908 18.889L9.83358 14.659L6.24008 12.059V12.0585C6.07208 11.9375 5.96308 11.74 5.96308 11.517C5.96308 11.1475 6.26208 10.8485 6.63208 10.8485H11.0806L12.4581 6.63798C12.5421 6.36448 12.7966 6.16548 13.0981 6.16548C13.3991 6.16548 13.6541 6.36448 13.7376 6.63798L15.1151 10.8485H19.5636C19.9331 10.8485 20.2326 11.1475 20.2326 11.517C20.2321 11.74 20.1231 11.9375 19.9556 12.0585Z" fill="#F0145A"/>
</svg>
